# xmcd
#
# Track frame offsets: 
#        150
#        78579
#        112245
#
# Disc length: 2099 seconds
#
# Revision: 0
# Processed by: cddbd v1.5.2PL0 Copyright (c) Steve Scherf et al.
# Submitted via: ExactAudioCopy v0.95b3
#
DISCID=22083103
DTITLE=Emerson Lake and Palmer  - Welcome Back My Friends - Disc 2 (Fost
DTITLE=ex Q8)  WAV
DYEAR=1900
DGENRE=
TTITLE0=Emerson Lake Palmer  - 1st Impression
TTITLE1=Emerson Lake Palmer  - 2nd Impression
TTITLE2=Emerson Lake Palmer  - 3rd Impression
EXTD=
EXTT0=
EXTT1=
EXTT2=
PLAYORDER=
